<svg width="9" height="25" viewBox="0 0 9 25" fill="none" xmlns="http://www.w3.org/2000/svg">
<path d="M0.9375 20.7143H1.875V13.6607H0.9375C0.419719 13.6607 0 13.2235 0 12.6841V10.3516C0 9.81221 0.419719 9.375 0.9375 9.375H6.1875C6.70528 9.375 7.125 9.81221 7.125 10.3516V20.7143H8.0625C8.58028 20.7143 9 21.1515 9 21.6909V24.0234C9 24.5628 8.58028 25 8.0625 25H0.9375C0.419719 25 0 24.5628 0 24.0234V21.6909C0 21.1515 0.419719 20.7143 0.9375 20.7143ZM4.5 0C2.63602 0 1.125 1.57397 1.125 3.51562C1.125 5.45728 2.63602 7.03125 4.5 7.03125C6.36398 7.03125 7.875 5.45728 7.875 3.51562C7.875 1.57397 6.36394 0 4.5 0Z" fill="black" fill-opacity="0.49"/>
</svg>
