<svg width="27" height="27" viewBox="0 0 27 27" fill="none" xmlns="http://www.w3.org/2000/svg">
<path d="M13.5 0C6.04336 0 0 6.04336 0 13.5C0 20.9566 6.04336 27 13.5 27C20.9566 27 27 20.9566 27 13.5C27 6.04336 20.9566 0 13.5 0ZM13.5 6.75C15.5972 6.75 17.2969 8.45016 17.2969 10.5469C17.2969 12.6436 15.5988 14.3438 13.5 14.3438C11.4033 14.3438 9.70312 12.6436 9.70312 10.5469C9.70312 8.45016 11.4012 6.75 13.5 6.75ZM13.5 23.625C10.7088 23.625 8.1791 22.4896 6.34395 20.6566C7.19824 18.4518 9.30762 16.875 11.8125 16.875H15.1875C17.6945 16.875 19.8039 18.4507 20.6561 20.6566C18.8209 22.4912 16.2896 23.625 13.5 23.625Z" fill="black" fill-opacity="0.49"/>
</svg>
