<svg width="310" height="55" viewBox="0 0 310 55" fill="none" xmlns="http://www.w3.org/2000/svg">
<path d="M33.4933 15.768C34.5013 15.768 35.3173 16.104 35.9413 16.776C36.6133 17.4 36.9493 18.24 36.9493 19.296V50.544C36.9493 51.504 36.6133 52.32 35.9413 52.992C35.3173 53.664 34.5013 54 33.4933 54C32.4853 54 31.6693 53.688 31.0453 53.064C30.4213 52.392 30.1093 51.552 30.1093 50.544V48.672C28.8613 50.352 27.1573 51.792 24.9973 52.992C22.8373 54.144 20.5093 54.72 18.0133 54.72C14.7493 54.72 11.7733 53.88 9.08525 52.2C6.44525 50.52 4.35725 48.192 2.82125 45.216C1.33325 42.192 0.58925 38.808 0.58925 35.064C0.58925 31.32 1.33325 27.96 2.82125 24.984C4.35725 21.96 6.44525 19.608 9.08525 17.928C11.7253 16.248 14.6293 15.408 17.7973 15.408C20.3413 15.408 22.6933 15.936 24.8533 16.992C27.0613 18.048 28.8133 19.392 30.1093 21.024V19.296C30.1093 18.288 30.4213 17.448 31.0453 16.776C31.6693 16.104 32.4853 15.768 33.4933 15.768ZM18.8053 48.384C21.0613 48.384 23.0533 47.808 24.7813 46.656C26.5573 45.504 27.9253 43.92 28.8853 41.904C29.8933 39.888 30.3973 37.608 30.3973 35.064C30.3973 32.568 29.8933 30.312 28.8853 28.296C27.9253 26.28 26.5573 24.696 24.7813 23.544C23.0533 22.344 21.0613 21.744 18.8053 21.744C16.5493 21.744 14.5333 22.32 12.7573 23.472C11.0293 24.624 9.66125 26.208 8.65325 28.224C7.69325 30.24 7.21325 32.52 7.21325 35.064C7.21325 37.608 7.69325 39.888 8.65325 41.904C9.66125 43.92 11.0293 45.504 12.7573 46.656C14.5333 47.808 16.5493 48.384 18.8053 48.384ZM77.7198 0.719999C78.7278 0.719999 79.5438 1.056 80.1678 1.728C80.8398 2.352 81.1758 3.168 81.1758 4.176V50.544C81.1758 51.504 80.8398 52.32 80.1678 52.992C79.5438 53.664 78.7278 54 77.7198 54C76.7118 54 75.8958 53.688 75.2718 53.064C74.6478 52.392 74.3358 51.552 74.3358 50.544V48.528C73.1358 50.256 71.4318 51.72 69.2238 52.92C67.0638 54.12 64.7358 54.72 62.2398 54.72C58.9758 54.72 56.0238 53.88 53.3838 52.2C50.7438 50.52 48.6558 48.192 47.1198 45.216C45.5838 42.192 44.8158 38.808 44.8158 35.064C44.8158 31.32 45.5598 27.96 47.0478 24.984C48.5838 21.96 50.6718 19.608 53.3118 17.928C55.9518 16.248 58.8558 15.408 62.0238 15.408C64.5678 15.408 66.9198 15.936 69.0798 16.992C71.2398 18.048 72.9918 19.416 74.3358 21.096V4.176C74.3358 3.168 74.6478 2.352 75.2718 1.728C75.8958 1.056 76.7118 0.719999 77.7198 0.719999ZM63.0318 48.384C65.2878 48.384 67.2798 47.808 69.0078 46.656C70.7838 45.504 72.1518 43.92 73.1118 41.904C74.1198 39.888 74.6238 37.608 74.6238 35.064C74.6238 32.568 74.1198 30.312 73.1118 28.296C72.1518 26.232 70.7838 24.624 69.0078 23.472C67.2798 22.32 65.2878 21.744 63.0318 21.744C60.7758 21.744 58.7598 22.32 56.9838 23.472C55.2558 24.624 53.8878 26.232 52.8798 28.296C51.9198 30.312 51.4398 32.568 51.4398 35.064C51.4398 37.608 51.9198 39.888 52.8798 41.904C53.8878 43.92 55.2558 45.504 56.9838 46.656C58.7598 47.808 60.7758 48.384 63.0318 48.384ZM120.146 15.912C121.058 15.912 121.826 16.224 122.45 16.848C123.074 17.424 123.386 18.12 123.386 18.936C123.386 19.368 123.218 19.968 122.882 20.736L109.202 51.84C108.914 52.464 108.506 52.968 107.978 53.352C107.45 53.736 106.874 53.952 106.25 54C105.482 54.096 104.762 53.952 104.09 53.568C103.466 53.184 102.986 52.608 102.65 51.84L88.9704 20.736C88.7304 20.016 88.6104 19.416 88.6104 18.936C88.6104 18.168 88.9224 17.472 89.5464 16.848C90.1704 16.224 90.9864 15.912 91.9944 15.912C92.7144 15.912 93.3624 16.104 93.9384 16.488C94.5144 16.824 94.9704 17.352 95.3064 18.072L106.178 43.344L117.05 18.072C117.722 16.632 118.754 15.912 120.146 15.912ZM163.56 33.696C163.512 34.56 163.152 35.304 162.48 35.928C161.808 36.504 161.016 36.792 160.104 36.792H134.76C135.096 40.296 136.416 43.104 138.72 45.216C141.072 47.328 143.928 48.384 147.288 48.384C149.592 48.384 151.464 48.048 152.904 47.376C154.344 46.704 155.616 45.84 156.72 44.784C157.44 44.352 158.136 44.136 158.808 44.136C159.624 44.136 160.296 44.424 160.824 45C161.4 45.576 161.688 46.248 161.688 47.016C161.688 48.024 161.208 48.936 160.248 49.752C158.856 51.144 157.008 52.32 154.704 53.28C152.4 54.24 150.048 54.72 147.648 54.72C143.76 54.72 140.328 53.904 137.352 52.272C134.424 50.64 132.144 48.36 130.512 45.432C128.928 42.504 128.136 39.192 128.136 35.496C128.136 31.464 128.952 27.936 130.584 24.912C132.264 21.84 134.448 19.488 137.136 17.856C139.872 16.224 142.8 15.408 145.92 15.408C148.992 15.408 151.872 16.2 154.56 17.784C157.248 19.368 159.408 21.552 161.04 24.336C162.672 27.12 163.512 30.24 163.56 33.696ZM145.92 21.744C143.232 21.744 140.904 22.512 138.936 24.048C136.968 25.536 135.672 27.864 135.048 31.032H156.288V30.456C156.048 27.912 154.896 25.824 152.832 24.192C150.816 22.56 148.512 21.744 145.92 21.744ZM190.727 15.408C199.367 15.408 203.687 20.592 203.687 30.96V50.544C203.687 51.504 203.351 52.32 202.679 52.992C202.055 53.664 201.239 54 200.231 54C199.271 54 198.455 53.664 197.783 52.992C197.159 52.32 196.847 51.504 196.847 50.544V31.032C196.847 28.2 196.199 25.944 194.903 24.264C193.607 22.584 191.495 21.744 188.567 21.744C186.647 21.744 184.895 22.176 183.311 23.04C181.775 23.856 180.551 24.984 179.639 26.424C178.775 27.816 178.343 29.352 178.343 31.032V50.544C178.343 51.504 178.007 52.32 177.335 52.992C176.711 53.664 175.895 54 174.887 54C173.879 54 173.063 53.688 172.439 53.064C171.815 52.392 171.503 51.552 171.503 50.544V19.728C171.503 18.768 171.815 17.952 172.439 17.28C173.111 16.608 173.927 16.272 174.887 16.272C175.895 16.272 176.711 16.608 177.335 17.28C178.007 17.952 178.343 18.768 178.343 19.728V22.248C179.591 20.328 181.319 18.72 183.527 17.424C185.783 16.08 188.183 15.408 190.727 15.408ZM224.125 22.968V44.424C224.125 46.824 225.205 48.024 227.365 48.024C227.701 48.024 228.157 47.952 228.733 47.808C229.309 47.616 229.765 47.52 230.101 47.52C230.725 47.52 231.253 47.784 231.685 48.312C232.117 48.84 232.333 49.512 232.333 50.328C232.333 51.336 231.757 52.2 230.605 52.92C229.453 53.64 228.157 54 226.717 54C225.133 54 223.669 53.832 222.325 53.496C221.029 53.16 219.853 52.32 218.797 50.976C217.789 49.584 217.285 47.496 217.285 44.712V22.968H213.109C212.197 22.968 211.429 22.68 210.805 22.104C210.229 21.48 209.941 20.712 209.941 19.8C209.941 18.888 210.229 18.144 210.805 17.568C211.429 16.992 212.197 16.704 213.109 16.704H217.285V10.656C217.285 9.696 217.597 8.88 218.221 8.208C218.893 7.536 219.733 7.2 220.741 7.2C221.701 7.2 222.493 7.536 223.117 8.208C223.789 8.88 224.125 9.696 224.125 10.656V16.704H230.101C231.013 16.704 231.757 17.016 232.333 17.64C232.957 18.216 233.269 18.96 233.269 19.872C233.269 20.784 232.957 21.528 232.333 22.104C231.757 22.68 231.013 22.968 230.101 22.968H224.125ZM269.333 16.272C270.341 16.272 271.157 16.608 271.781 17.28C272.453 17.952 272.789 18.768 272.789 19.728V38.88C272.789 43.872 271.397 47.76 268.613 50.544C265.877 53.28 261.989 54.648 256.949 54.648C251.957 54.648 248.093 53.28 245.357 50.544C242.621 47.76 241.253 43.872 241.253 38.88V19.728C241.253 18.768 241.565 17.952 242.189 17.28C242.861 16.608 243.677 16.272 244.637 16.272C245.645 16.272 246.461 16.608 247.085 17.28C247.757 17.952 248.093 18.768 248.093 19.728V38.88C248.093 45.168 251.045 48.312 256.949 48.312C259.877 48.312 262.109 47.52 263.645 45.936C265.181 44.352 265.949 42 265.949 38.88V19.728C265.949 18.768 266.261 17.952 266.885 17.28C267.557 16.608 268.373 16.272 269.333 16.272ZM280.858 48.096C280.426 47.424 280.21 46.776 280.21 46.152C280.21 45.192 280.714 44.376 281.722 43.704C282.202 43.368 282.754 43.2 283.378 43.2C284.242 43.2 285.034 43.56 285.754 44.28C287.194 45.912 288.73 47.136 290.362 47.952C292.042 48.768 294.034 49.176 296.338 49.176C298.162 49.128 299.77 48.72 301.162 47.952C302.554 47.136 303.25 45.84 303.25 44.064C303.25 42.432 302.53 41.184 301.09 40.32C299.698 39.456 297.634 38.664 294.898 37.944C292.21 37.224 289.978 36.48 288.202 35.712C286.426 34.896 284.914 33.744 283.666 32.256C282.466 30.72 281.866 28.728 281.866 26.28C281.866 24.12 282.466 22.224 283.666 20.592C284.914 18.96 286.546 17.688 288.562 16.776C290.626 15.864 292.858 15.408 295.258 15.408C297.562 15.408 299.842 15.84 302.098 16.704C304.402 17.568 306.274 18.888 307.714 20.664C308.29 21.336 308.578 22.032 308.578 22.752C308.578 23.52 308.194 24.264 307.426 24.984C306.946 25.416 306.346 25.632 305.626 25.632C304.762 25.632 304.066 25.344 303.538 24.768C302.53 23.616 301.282 22.728 299.794 22.104C298.354 21.48 296.746 21.168 294.97 21.168C293.146 21.168 291.586 21.552 290.29 22.32C289.042 23.04 288.418 24.288 288.418 26.064C288.466 27.744 289.186 28.992 290.578 29.808C292.018 30.624 294.202 31.416 297.13 32.184C299.674 32.856 301.786 33.576 303.466 34.344C305.146 35.112 306.562 36.264 307.714 37.8C308.866 39.288 309.442 41.256 309.442 43.704C309.442 45.96 308.794 47.928 307.498 49.608C306.202 51.24 304.498 52.512 302.386 53.424C300.322 54.288 298.114 54.72 295.762 54.72C292.738 54.72 289.93 54.192 287.338 53.136C284.794 52.08 282.634 50.4 280.858 48.096Z" fill="url(#paint0_linear_3_3)"/>
<defs>
<linearGradient id="paint0_linear_3_3" x1="10" y1="31" x2="292.5" y2="41" gradientUnits="userSpaceOnUse">
<stop stop-color="#79ECC5"/>
<stop offset="1" stop-color="#F1DF6B"/>
</linearGradient>
</defs>
</svg>
