<svg width="27" height="27" viewBox="0 0 27 27" fill="none" xmlns="http://www.w3.org/2000/svg">
<path d="M0 10.067V9.76116C0 6.07502 2.66414 2.931 6.29648 2.32561C8.65371 1.92536 11.148 2.70899 12.8672 4.43077L13.5 5.06252L14.0854 4.43077C15.852 2.70899 18.2988 1.92536 20.7035 2.32561C24.3369 2.931 27 6.07502 27 9.76116V10.067C27 12.2555 26.093 14.349 24.4898 15.8414L14.9607 24.7377C14.5652 25.1069 14.0432 25.3125 13.5 25.3125C12.9568 25.3125 12.4348 25.1069 12.0393 24.7377L2.50963 15.8414C0.908613 14.349 1.58203e-05 12.2555 1.58203e-05 10.067H0Z" fill="#F38585"/>
</svg>
