<svg width="27" height="27" viewBox="0 0 27 27" fill="none" xmlns="http://www.w3.org/2000/svg">
<path d="M6.54306 3.8052C3.63881 4.28924 1.5067 6.80013 1.5 9.74722V10.067C1.5 11.8403 2.2364 13.5361 3.53239 14.7442L3.53321 14.745L13.0627 23.6411C13.1797 23.7503 13.3358 23.8125 13.5 23.8125C13.6642 23.8125 13.8201 23.7504 13.9371 23.6413L23.4662 14.745L23.4678 14.7435C24.7647 13.5362 25.5 11.8409 25.5 10.067V9.76115C25.5 6.80794 23.3666 4.2901 20.457 3.8052C18.5454 3.4871 16.5882 4.10164 15.1583 5.47974L14.6003 6.08199L13.5421 7.22409L12.4402 6.12407L11.8074 5.4923L11.8057 5.4906C10.4311 4.11383 8.42629 3.48543 6.54757 3.80443L6.54306 3.8052Z" stroke="#7E7E7E" stroke-opacity="0.85" stroke-width="3"/>
</svg>
