<svg width="29" height="29" viewBox="0 0 29 29" fill="none" xmlns="http://www.w3.org/2000/svg">
<path d="M28.0938 21.75H9.0625V20.8438C9.0625 20.3453 8.65469 19.9375 8.15625 19.9375H6.34375C5.84531 19.9375 5.4375 20.3453 5.4375 20.8438V21.75H0.90625C0.407812 21.75 0 22.1578 0 22.6562V24.4688C0 24.9672 0.407812 25.375 0.90625 25.375H5.4375V26.2812C5.4375 26.7797 5.84531 27.1875 6.34375 27.1875H8.15625C8.65469 27.1875 9.0625 26.7797 9.0625 26.2812V25.375H28.0938C28.5922 25.375 29 24.9672 29 24.4688V22.6562C29 22.1578 28.5922 21.75 28.0938 21.75ZM28.0938 12.6875H23.5625V11.7812C23.5625 11.2828 23.1547 10.875 22.6562 10.875H20.8438C20.3453 10.875 19.9375 11.2828 19.9375 11.7812V12.6875H0.90625C0.407812 12.6875 0 13.0953 0 13.5938V15.4062C0 15.9047 0.407812 16.3125 0.90625 16.3125H19.9375V17.2188C19.9375 17.7172 20.3453 18.125 20.8438 18.125H22.6562C23.1547 18.125 23.5625 17.7172 23.5625 17.2188V16.3125H28.0938C28.5922 16.3125 29 15.9047 29 15.4062V13.5938C29 13.0953 28.5922 12.6875 28.0938 12.6875ZM28.0938 3.625H16.3125V2.71875C16.3125 2.22031 15.9047 1.8125 15.4062 1.8125H13.5938C13.0953 1.8125 12.6875 2.22031 12.6875 2.71875V3.625H0.90625C0.407812 3.625 0 4.03281 0 4.53125V6.34375C0 6.84219 0.407812 7.25 0.90625 7.25H12.6875V8.15625C12.6875 8.65469 13.0953 9.0625 13.5938 9.0625H15.4062C15.9047 9.0625 16.3125 8.65469 16.3125 8.15625V7.25H28.0938C28.5922 7.25 29 6.84219 29 6.34375V4.53125C29 4.03281 28.5922 3.625 28.0938 3.625Z" fill="black" fill-opacity="0.69"/>
</svg>
