<svg width="518" height="53" viewBox="0 0 518 53" fill="none" xmlns="http://www.w3.org/2000/svg">
<rect width="518" height="53" rx="13" fill="#F0F0F0"/>
<g clip-path="url(#clip0_28_13)">
<path d="M42.3 34.25H38.8V19.8748C38.8 18.7035 37.8581 17.75 36.7 17.75H31.8V20.5H36V37H42.3C42.6868 37 43 36.6924 43 36.3125V34.9375C43 34.5577 42.6868 34.25 42.3 34.25ZM28.6605 15.0434L20.2605 17.1807C19.6371 17.3393 19.2 17.909 19.2 18.563V34.25H15.7C15.3132 34.25 15 34.5577 15 34.9375V36.3125C15 36.6924 15.3132 37 15.7 37H30.4V16.4257C30.4 15.4985 29.5442 14.8183 28.6605 15.0434ZM26.55 27.375C25.9703 27.375 25.5 26.7593 25.5 26C25.5 25.2408 25.9703 24.625 26.55 24.625C27.1297 24.625 27.6 25.2408 27.6 26C27.6 26.7593 27.1297 27.375 26.55 27.375Z" fill="black" fill-opacity="0.49"/>
</g>
<defs>
<clipPath id="clip0_28_13">
<rect width="28" height="22" fill="white" transform="translate(15 15)"/>
</clipPath>
</defs>
</svg>
