<svg width="518" height="53" viewBox="0 0 518 53" fill="none" xmlns="http://www.w3.org/2000/svg">
<rect width="518" height="53" rx="13" fill="#F0F0F0"/>
<path d="M25.4444 29.0946V37.0515L26.5149 38.7283C26.7458 39.0899 27.2547 39.0899 27.4856 38.7283L28.5556 37.0515V29.0946C28.0505 29.1921 27.5318 29.25 27 29.25C26.4682 29.25 25.9495 29.1921 25.4444 29.0946ZM27 13C23.134 13 20 16.2739 20 20.3125C20 24.3511 23.134 27.625 27 27.625C30.866 27.625 34 24.3511 34 20.3125C34 16.2739 30.866 13 27 13ZM27 16.8594C25.1771 16.8594 23.6944 18.4082 23.6944 20.3125C23.6944 20.6487 23.4329 20.9219 23.1111 20.9219C22.7893 20.9219 22.5278 20.6487 22.5278 20.3125C22.5278 17.7364 24.5344 15.6406 27 15.6406C27.3218 15.6406 27.5833 15.9138 27.5833 16.25C27.5833 16.5862 27.3218 16.8594 27 16.8594Z" fill="black" fill-opacity="0.49"/>
</svg>
