<svg width="518" height="53" viewBox="0 0 518 53" fill="none" xmlns="http://www.w3.org/2000/svg">
<rect width="518" height="53" rx="13" fill="#F0F0F0"/>
<g clip-path="url(#clip0_41_17)">
<path d="M28.495 14.7421C28.5353 14.9716 29.3077 19.3564 29.3077 21.0312C29.3077 23.5849 27.9043 25.4062 25.8296 26.1386L26.4808 37.7646C26.5161 38.4335 25.9659 38.9999 25.2692 38.9999H22.0385C21.3469 38.9999 20.7916 38.4384 20.8269 37.7646L21.4781 26.1386C19.3983 25.4062 18 23.58 18 21.0312C18 19.3515 18.7724 14.9716 18.8127 14.7421C18.9743 13.7509 21.0995 13.7362 21.2308 14.7958V21.6903C21.2964 21.8564 21.993 21.8466 22.0385 21.6903C22.1091 20.455 22.4373 14.8935 22.4423 14.7665C22.6089 13.7509 24.6988 13.7509 24.8603 14.7665C24.8704 14.8984 25.1935 20.455 25.2642 21.6903C25.3096 21.8466 26.0113 21.8564 26.0719 21.6903V14.7958C26.2031 13.7411 28.3334 13.7509 28.495 14.7421ZM34.5123 28.6923L33.755 37.7304C33.6945 38.414 34.2548 38.9999 34.9615 38.9999H37.7885C38.4599 38.9999 39 38.4775 39 37.828V15.1718C39 14.5273 38.4599 13.9999 37.7885 13.9999C33.6238 13.9999 26.612 22.7157 34.5123 28.6923Z" fill="black" fill-opacity="0.49"/>
</g>
<defs>
<clipPath id="clip0_41_17">
<rect width="21" height="25" fill="white" transform="translate(18 14)"/>
</clipPath>
</defs>
</svg>
